<?xml version="1.0" standalone="no"?><!DOCTYPE svg PUBLIC "-//W3C//DTD SVG 1.1//EN" "http://www.w3.org/Graphics/SVG/1.1/DTD/svg11.dtd"><svg t="1528013879158" class="icon" style="" viewBox="0 0 1024 1024" version="1.1" xmlns="http://www.w3.org/2000/svg" p-id="561" xmlns:xlink="http://www.w3.org/1999/xlink" width="200" height="200"><defs><style type="text/css"></style></defs><path d="M917.421124 49.880037 134.494669 49.880037c-30.909987 0-55.92266 25.012673-55.92266 55.92266L78.572008 665.036465c0 30.91101 25.012673 55.92266 55.92266 55.92266L470.035748 720.959126l0 139.808186-111.847367 0c-30.884404 0-55.923684 25.040303-55.923684 55.92266l0 13.979386c0 7.730055 6.239098 13.981433 13.981433 13.981433l419.424558 0c7.729032 0 13.980409-6.251378 13.980409-13.981433l0-13.979386c0-30.884404-25.040303-55.92266-55.921637-55.92266l-111.847367 0L581.882092 720.960149l335.539033 0c30.91101 0 55.92266-25.01165 55.92266-55.92266L973.343785 105.803721C973.344808 74.892711 948.332135 49.880037 917.421124 49.880037zM693.728436 888.7312c15.427364 0 27.960819 12.533454 27.960819 27.961842L330.226538 916.693042c0-15.428388 12.520151-27.961842 27.961842-27.961842L693.728436 888.7312zM553.92025 860.768335l-55.92266 0L497.99759 720.960149l55.92266 0L553.92025 860.768335zM945.38399 665.037489c0 15.427364-12.534478 27.960819-27.961842 27.960819L134.494669 692.998307c-15.440667 0-27.961842-12.533454-27.961842-27.960819l0-55.923684 838.851163 0L945.38399 665.037489zM945.38399 581.15094 106.532827 581.15094 106.532827 105.803721c0-15.440667 12.520151-27.961842 27.961842-27.961842l782.927479 0c15.427364 0 27.961842 12.520151 27.961842 27.961842L945.38399 581.15094 945.38399 581.15094z" p-id="562" fill=""></path><path d="M525.958408 651.056056m-27.961842 0a27.325 27.325 0 1 0 55.923684 0 27.325 27.325 0 1 0-55.923684 0Z" p-id="563" fill=""></path></svg>