<?xml version="1.0" standalone="no"?><!DOCTYPE svg PUBLIC "-//W3C//DTD SVG 1.1//EN" "http://www.w3.org/Graphics/SVG/1.1/DTD/svg11.dtd"><svg t="1528015457709" class="icon" style="" viewBox="0 0 1024 1024" version="1.1" xmlns="http://www.w3.org/2000/svg" p-id="1375" xmlns:xlink="http://www.w3.org/1999/xlink" width="200" height="200"><defs><style type="text/css"></style></defs><path d="M908.9024 344.8832c-22.3232-52.4288-53.0432-97.8944-91.9552-137.0112-39.1168-39.1168-84.5824-69.8368-137.0112-91.9552-52.6336-22.3232-108.544-33.792-167.5264-33.792-59.392 0-115.3024 10.8544-167.7312 33.5872-52.4288 22.3232-98.5088 53.0432-137.0112 91.9552-38.5024 39.1168-69.2224 84.5824-91.9552 137.0112-22.7328 52.4288-34.2016 108.3392-34.2016 167.3216 0 59.392 11.4688 114.8928 34.2016 167.3216s53.4528 97.8944 91.9552 137.0112c39.1168 39.1168 84.5824 69.8368 137.0112 91.9552 53.0432 22.3232 108.3392 33.5872 167.7312 33.5872s114.8928-11.4688 167.3216-33.5872c52.4288-22.3232 97.8944-53.0432 137.0112-91.9552 39.1168-39.1168 69.8368-84.5824 91.9552-137.0112 22.3232-52.4288 33.5872-108.3392 33.5872-167.3216 0.2048-59.1872-11.0592-114.688-33.3824-167.1168zM778.24 624.2304c-14.9504 35.0208-35.4304 65.7408-61.6448 91.9552s-56.5248 46.8992-91.9552 61.6448c-35.0208 14.9504-72.2944 22.3232-112.0256 22.3232-39.7312 0-77.0048-7.5776-112.64-22.3232-35.0208-14.9504-65.7408-35.4304-91.9552-61.6448-25.8048-26.2144-46.4896-56.5248-61.6448-91.9552-15.36-35.0208-23.1424-72.2944-23.1424-112.0256 0-39.5264 7.5776-77.0048 22.9376-112.0256s36.0448-65.7408 61.6448-91.9552c25.8048-26.2144 56.5248-46.8992 91.9552-61.6448 35.0208-15.36 72.9088-22.3232 112.64-22.3232 39.5264 0 77.0048 7.5776 112.0256 22.3232 35.0208 14.9504 65.7408 35.4304 91.9552 61.6448 26.2144 26.2144 46.8992 56.5248 61.6448 91.9552 14.9504 35.0208 22.3232 72.2944 22.3232 112.0256 0.4096 39.5264-7.168 77.0048-22.1184 112.0256z" fill="" p-id="1376"></path><path d="M645.12 564.4288l-185.7536-185.7536c-2.048-2.4576-4.5056-4.9152-6.9632-6.9632l-1.4336-1.4336-0.2048 0.2048c-9.8304-7.7824-22.3232-12.288-35.6352-12.4928-31.9488-0.2048-57.5488 25.3952-57.1392 57.1392 0.2048 13.312 4.9152 25.8048 12.4928 35.6352l-0.4096 0.4096 200.4992 200.4992 0.2048-0.2048c10.24 9.0112 23.552 14.336 38.0928 14.5408 31.9488 0.2048 57.5488-25.3952 57.1392-57.1392-0.2048-17.8176-8.192-33.5872-20.8896-44.4416z" fill="" p-id="1377"></path></svg>