<?xml version="1.0" standalone="no"?><!DOCTYPE svg PUBLIC "-//W3C//DTD SVG 1.1//EN" "http://www.w3.org/Graphics/SVG/1.1/DTD/svg11.dtd"><svg t="1527922144638" class="icon" style="" viewBox="0 0 1024 1024" version="1.1" xmlns="http://www.w3.org/2000/svg" p-id="3794" xmlns:xlink="http://www.w3.org/1999/xlink" width="200" height="200"><defs><style type="text/css"></style></defs><path d="M775.552 242.048c-52.608-52.608-137.856-52.608-190.4 0-52.608 52.608-52.608 137.856 0 190.4 52.608 52.608 137.856 52.608 190.4 0C828.096 379.904 828.096 294.656 775.552 242.048L775.552 242.048zM634.56 383.68c-25.984-25.984-25.984-68.16 0-94.208 25.984-25.984 68.16-25.984 94.208 0 25.984 25.984 25.984 68.16 0 94.208C702.784 409.728 660.544 409.728 634.56 383.68L634.56 383.68zM634.56 383.68" p-id="3795" fill=""></path><path d="M952.96 264.832 952.96 214.208l0 0L952.96 105.6c0-23.296-19.072-42.368-42.368-42.368L499.136 63.232c-12.8 0-24.32 5.76-32.064 14.784L58.944 486.144c-16.448 16.448-16.448 43.392 0 59.904l411.2 411.2c16.448 16.448 43.392 16.448 59.904 0l375.296-375.296c0.576-0.512 1.152-1.088 1.664-1.664l0.768-0.768-0.064 0c5.248-6.016 8.448-13.824 8.448-22.464 0-18.816-15.296-34.112-34.112-34.112-11.904 0-22.336 6.08-28.48 15.296l-323.008 323.008c-16.448 16.448-43.392 16.448-59.904 0L155.328 545.856c-16.448-16.448-16.448-43.392 0-59.904l339.328-339.328C494.72 146.56 494.848 146.496 494.912 146.432c7.68-7.808 18.368-12.672 30.08-12.672l315.264 0c23.296 0 42.368 19.072 42.368 42.368l0 94.656 0 0 0 187.776 0 0c0 0.064 0 0.128 0 0.192 0 19.456 15.744 35.2 35.2 35.2 18.56 0 33.792-14.4 35.072-32.64 0.064 0 0.064 0.064 0.128 0.064L953.024 275.712C953.536 272.128 953.536 268.416 952.96 264.832L952.96 264.832zM952.96 264.832" p-id="3796" fill=""></path></svg>