<?xml version="1.0" standalone="no"?><!DOCTYPE svg PUBLIC "-//W3C//DTD SVG 1.1//EN" "http://www.w3.org/Graphics/SVG/1.1/DTD/svg11.dtd"><svg t="1528451383041" class="icon" style="" viewBox="0 0 1024 1024" version="1.1" xmlns="http://www.w3.org/2000/svg" p-id="1411" xmlns:xlink="http://www.w3.org/1999/xlink" width="200" height="200"><defs><style type="text/css"></style></defs><path d="M555.2128 447.1808h-10.24V512h10.24a10.8544 10.8544 0 0 0 10.8544-10.8544v-43.2128a10.8544 10.8544 0 0 0-10.8544-10.752zM468.7872 447.1808a10.8544 10.8544 0 0 0-10.8544 10.24v32.4608h21.6064v-31.9488a10.24 10.24 0 0 0-10.752-10.752zM512 695.7056a21.7088 21.7088 0 1 0 21.6064 21.7088A21.7088 21.7088 0 0 0 512 695.7056z" fill="" p-id="1412"></path><path d="M360.6528 295.8336v367.5136h302.6944V295.8336z m140.4928 227.0208a10.8544 10.8544 0 0 1-21.6064 0V512h-21.6064v10.8544a10.8544 10.8544 0 0 1-21.6064 0v-64.9216a32.4608 32.4608 0 0 1 64.8192 0z m86.528-21.7088a32.4608 32.4608 0 0 1-32.4608 32.4608h-21.6064a10.24 10.24 0 0 1-10.24-10.24v-87.04a10.24 10.24 0 0 1 10.24-10.24h21.6064a32.4608 32.4608 0 0 1 32.4608 32.3584z m43.2128-162.0992a10.8544 10.8544 0 0 1 0-21.6064 10.8544 10.8544 0 1 1 0 21.6064z" fill="#090808" p-id="1413"></path><path d="M512 0a512 512 0 1 0 512 512A512 512 0 0 0 512 0z m194.56 728.1664a43.2128 43.2128 0 0 1-43.2128 43.2128H360.6528A43.2128 43.2128 0 0 1 317.44 728.1664V295.8336a43.2128 43.2128 0 0 1 43.2128-43.2128h302.6944A43.2128 43.2128 0 0 1 706.56 295.8336z" fill="" p-id="1414"></path></svg>