<?xml version="1.0" standalone="no"?><!DOCTYPE svg PUBLIC "-//W3C//DTD SVG 1.1//EN" "http://www.w3.org/Graphics/SVG/1.1/DTD/svg11.dtd"><svg t="1528611210800" class="icon" style="" viewBox="0 0 1024 1024" version="1.1" xmlns="http://www.w3.org/2000/svg" p-id="2627" xmlns:xlink="http://www.w3.org/1999/xlink" width="200" height="200"><defs><style type="text/css"></style></defs><path d="M295.936 281.6c0 102.912 83.456 186.368 186.368 186.368s186.368-83.456 186.368-186.368-83.456-186.368-186.368-186.368-186.368 83.456-186.368 186.368zM531.968 735.232c0-81.408 31.232-155.136 80.384-210.432-42.496-13.824-86.528-20.992-131.072-20.992-235.008 0-425.472 190.464-425.472 425.472h542.72c-43.008-55.808-66.56-123.904-66.56-194.048z" p-id="2628"></path><path d="M967.68 769.536v-71.168s-47.104-9.216-47.616-12.288c-1.024-3.584-2.048-6.656-3.072-10.24 5.632-10.24 31.744-32.256 31.744-32.256L896 572.928s-34.304 28.16-43.008 32.256c-4.096-1.536-8.192-3.072-12.8-4.096-4.608-1.024-17.408-46.08-17.408-46.08l-70.144-1.024s-7.68 43.52-19.456 46.592c-4.096 1.024-7.68 2.56-11.776 4.096-8.704-4.096-43.008-32.768-43.008-32.768l-52.736 71.68s26.624 26.624 28.16 35.84c-1.024 3.072-2.048 5.632-3.072 8.704-14.336 4.096-29.184 7.68-43.52 10.24v71.168s37.888 7.68 44.544 14.336c1.536 4.096 3.072 8.192 5.12 11.776-8.704 10.752-31.744 28.672-31.744 28.672l54.784 71.168s43.008-27.648 49.664-29.184c3.584 1.536 7.168 3.072 10.752 4.096 6.656 2.048 10.752 43.52 10.752 43.52h71.168s2.56-40.448 7.68-41.984c5.12-1.536 10.24-3.584 15.36-5.632 6.144 2.56 33.792 30.208 33.792 30.208l70.144-71.68s-26.112-17.92-33.28-27.648c2.048-4.096 3.584-8.192 5.12-12.288 3.072-6.656 46.592-15.36 46.592-15.36M786.944 823.296c-49.664 0-89.6-39.936-89.6-89.6s39.936-89.6 89.6-89.6 89.6 39.936 89.6 89.6c0 49.152-39.936 89.6-89.6 89.6z" p-id="2629"></path></svg>