<?xml version="1.0" standalone="no"?><!DOCTYPE svg PUBLIC "-//W3C//DTD SVG 1.1//EN" "http://www.w3.org/Graphics/SVG/1.1/DTD/svg11.dtd"><svg t="1528611927671" class="icon" style="" viewBox="0 0 1024 1024" version="1.1" xmlns="http://www.w3.org/2000/svg" p-id="3301" xmlns:xlink="http://www.w3.org/1999/xlink" width="200" height="200"><defs><style type="text/css"></style></defs><path d="M968.537498 831.065772A497.1245 497.1245 0 0 0 704.876111 567.462098q-17.55915-7.430536-35.507863-13.432678a299.486671 299.486671 0 0 0 142.045878-254.61489C811.414126 134.312349 677.101777 0 511.999596 0S212.585066 134.312349 212.585066 299.41453A299.486671 299.486671 0 0 0 354.630944 554.043848q-17.948712 6.01657-35.507863 13.432678A495.104548 495.104548 0 0 0 16.505486 1024h72.141126C88.646612 790.565744 278.56534 600.647016 511.999596 600.647016s423.352984 189.918729 423.352984 423.352984h72.141126a492.420898 492.420898 0 0 0-38.956208-192.934228zM284.726192 299.41453C284.726192 174.090965 386.676032 72.141126 511.999596 72.141126s227.273404 101.949839 227.273404 227.273404S637.32316 526.63022 511.999596 526.63022 284.726192 424.738094 284.726192 299.41453z" p-id="3302"></path></svg>