<?xml version="1.0" standalone="no"?><!DOCTYPE svg PUBLIC "-//W3C//DTD SVG 1.1//EN" "http://www.w3.org/Graphics/SVG/1.1/DTD/svg11.dtd"><svg t="1528612812894" class="icon" style="" viewBox="0 0 1024 1024" version="1.1" xmlns="http://www.w3.org/2000/svg" p-id="4765" xmlns:xlink="http://www.w3.org/1999/xlink" width="200" height="200"><defs><style type="text/css"></style></defs><path d="M787.2 1024c-6.4 0-12.8 0-19.2-6.4l-166.4-160L172.8 857.6c-96 0-172.8-76.8-172.8-172.8L0 313.6c0-96 76.8-172.8 172.8-172.8l192 0 140.8-134.4C518.4 0 531.2 0 537.6 0c12.8 6.4 19.2 12.8 19.2 25.6l0 115.2 236.8 0c96 0 172.8 76.8 172.8 172.8l0 364.8c0 83.2-64 160-147.2 172.8l0 147.2c0 12.8-6.4 19.2-19.2 25.6C793.6 1024 793.6 1024 787.2 1024L787.2 1024zM172.8 198.4c-64 0-121.6 51.2-121.6 121.6l0 364.8c0 64 51.2 121.6 121.6 121.6l441.6 0c6.4 0 12.8 0 19.2 6.4l128 121.6 0-102.4c0-12.8 12.8-25.6 25.6-25.6 0 0 6.4 0 6.4 0 64-6.4 108.8-57.6 108.8-121.6L902.4 313.6c0-64-51.2-121.6-121.6-121.6L524.8 192C512 198.4 499.2 185.6 499.2 166.4L499.2 89.6 396.8 192C390.4 192 384 198.4 377.6 198.4L172.8 198.4 172.8 198.4zM172.8 198.4" p-id="4766"></path><path d="M320 409.6C320 428.8 307.2 448 281.6 448 262.4 448 243.2 428.8 243.2 409.6c0-19.2 19.2-38.4 38.4-38.4C307.2 371.2 320 390.4 320 409.6L320 409.6zM320 409.6" p-id="4767"></path><path d="M723.2 409.6c0 19.2-19.2 38.4-38.4 38.4-19.2 0-38.4-19.2-38.4-38.4 0-19.2 19.2-38.4 38.4-38.4C710.4 371.2 723.2 390.4 723.2 409.6L723.2 409.6zM723.2 409.6" p-id="4768"></path><path d="M480 723.2c-102.4 0-198.4-44.8-262.4-121.6-12.8-12.8-6.4-32 0-38.4 12.8-12.8 32-6.4 38.4 0 57.6 64 134.4 102.4 224 102.4 89.6 0 172.8-38.4 230.4-115.2 6.4-12.8 25.6-12.8 38.4-6.4 12.8 6.4 12.8 25.6 6.4 38.4C684.8 678.4 588.8 723.2 480 723.2L480 723.2zM480 723.2" p-id="4769"></path></svg>