<?xml version="1.0" standalone="no"?><!DOCTYPE svg PUBLIC "-//W3C//DTD SVG 1.1//EN" "http://www.w3.org/Graphics/SVG/1.1/DTD/svg11.dtd"><svg t="1530420568423" class="icon" style="" viewBox="0 0 1024 1024" version="1.1" xmlns="http://www.w3.org/2000/svg" p-id="1963" xmlns:xlink="http://www.w3.org/1999/xlink" width="200" height="200"><defs><style type="text/css"></style></defs><path d="M539.391997 962.017286c14.469119-5.237759 30.745597-12.666879 48.394235-22.650878 51.107835-28.927997 102.48703-72.668153 150.722545-134.384626 88.355831-113.044469 155.601904-272.829413 192.747501-487.388111a23.418878 23.418878 0 1 1 46.141435 8.007679c-38.415356 221.900778-108.692469 388.884441-202.004459 508.272589-52.085755 66.636793-108.185589 114.401269-164.567024 146.309105-19.967998 11.299839-38.625276 19.814398-55.511034 25.922558a232.156137 232.156137 0 0 1-16.199679 5.253119c-1.73056 0.4864-3.26656 0.88576-4.613119 1.21344-6.440959 1.39264-10.987519 1.03424-15.170559-0.55808-171.647983-65.295353-291.532771-206.218219-368.286683-399.05276-37.621756-94.520311-62.433274-195.52254-76.974072-296.48381a1376.701302 1376.701302 0 0 1-10.639359-97.62303 961.407904 961.407904 0 0 1-1.60256-27.560958 436.787156 436.787156 0 0 1-0.33792-10.106879 23.434238 23.434238 0 0 1 18.877438-23.398397 816.378798 816.378798 0 0 0 15.877119-3.456c13.173759-3.00544 28.364797-6.737919 45.358075-11.228159 48.665595-12.861439 101.90335-29.219837 157.936624-49.382395 19.599358-7.050239 31.692797-13.352959 80.307192-40.550396 28.282877-15.815678 45.578235-24.847358 64.332794-32.988157 30.417917-13.209599 57.425914-20.223998 83.455991-20.239358 54.650875-0.03584 93.634551 15.385598 166.845424 56.867835a34898.71523 34898.71523 0 0 1 10.183679 5.765119c3.80928 2.15552 7.004159 3.95264 10.055679 5.65248 21.288958 11.857919 36.828156 19.650558 52.162555 25.789437a23.449598 23.449598 0 0 1 13.055998 30.463997 23.403518 23.403518 0 0 1-30.433277 13.071359c-17.556478-7.024639-34.672637-15.610878-57.553914-28.354558a1868.994373 1868.994373 0 0 1-15.431678-8.693759l-5.10464-2.892799c-66.457593-37.647356-99.72223-50.810875-143.754226-50.785275-18.693118 0.01536-39.807996 5.498879-64.849913 16.373758-16.921598 7.342079-33.136637 15.810558-60.124154 30.904317C351.232016 122.88009 338.483217 129.536089 315.37666 137.850969c-57.369594 20.633598-111.892469 37.396476-161.822704 50.585595-16.476158 4.352-31.344637 8.028159-44.441596 11.043838 0.2816 4.95104 0.6144 10.301439 1.024 16.025599a1329.971067 1329.971067 0 0 0 10.280959 94.27967c14.054399 97.55135 38.005756 195.06686 74.127353 285.818852 71.239673 178.990062 180.387822 308.695009 334.453726 369.873883 3.072-0.9216 6.548479-2.06848 10.393599-3.46112z" p-id="1964"></path><path d="M504.064001 254.525517a23.429118 23.429118 0 0 1 23.418877-23.439358 23.429118 23.429118 0 0 1 23.413758 23.439358v274.129893a23.429118 23.429118 0 0 1-23.413758 23.444477 23.429118 23.429118 0 0 1-23.413757-23.444477v-274.124773zM504.064001 649.984037a23.429118 23.429118 0 0 1 23.418877-23.449597 23.429118 23.429118 0 0 1 23.413758 23.449597v45.363196a23.429118 23.429118 0 0 1-23.413758 23.449598 23.429118 23.429118 0 0 1-23.413757-23.449598v-45.363196z" p-id="1965"></path></svg>