<?xml version="1.0" standalone="no"?><!DOCTYPE svg PUBLIC "-//W3C//DTD SVG 1.1//EN" "http://www.w3.org/Graphics/SVG/1.1/DTD/svg11.dtd"><svg t="1528612281870" class="icon" style="" viewBox="0 0 1388 1024" version="1.1" xmlns="http://www.w3.org/2000/svg" p-id="3979" xmlns:xlink="http://www.w3.org/1999/xlink" width="271.09375" height="200"><defs><style type="text/css"></style></defs><path d="M149.047432 728.18067a11.377667 11.377667 0 0 1-7.281707-2.73064C48.923966 646.261471 0 551.599286 0 451.47582s49.606626-195.695864 143.358598-275.111976c12.742987-10.92256 26.62374-21.390013 40.732046-31.40236a11.377667 11.377667 0 0 1 13.198094 18.659373c-13.6532 9.55724-26.851293 19.79714-39.139173 30.264593C69.631319 268.750496 22.755333 357.723848 22.755333 451.47582s45.510666 182.042664 133.801358 256.452604a11.377667 11.377667 0 0 1-7.281706 20.024693zM1194.654986 983.950614a781.418137 781.418137 0 0 1-143.358599-40.049386c-76.457919-25.25842-171.802765-56.433226-199.564271-52.56482q-20.252246 2.958193-41.187152 5.46128a11.377667 11.377667 0 0 1-2.503087-22.755333q20.252246-2.275533 40.276939-5.233726c30.7197-4.09596 107.405172 18.659373 210.031725 53.475032 47.786199 15.70118 96.710166 31.857466 122.878798 37.091193-2.04798-6.599047-5.006173-14.790966-7.736813-22.755333-21.390013-60.529186-53.702586-152.005625-12.28788-177.719151 131.753378-81.691646 204.797998-190.917244 204.797998-307.652103 0-140.400405-108.315385-273.063997-289.67539-352.707663a11.377667 11.377667 0 0 1 9.329686-20.707353C1274.298651 162.255537 1388.075317 301.973282 1388.075317 451.47582c0 124.926778-76.230366 240.978977-214.810344 326.994136-25.94108 16.156286 7.50926 110.590919 22.755333 150.867858 12.060327 34.133 15.01852 42.097366 9.784793 49.379073l-3.4133 4.77862z m-11.377667-13.198093zM263.73431 121.295938a11.377667 11.377667 0 0 1-5.233726-21.390014 796.436657 796.436657 0 0 1 101.943892-44.372899A1004.420401 1004.420401 0 0 1 694.037658 0.010012a1010.336788 1010.336788 0 0 1 294.681563 42.552473 11.377667 11.377667 0 1 1-6.599046 22.755333A987.353901 987.353901 0 0 0 694.037658 22.765345a982.120175 982.120175 0 0 0-326.083922 54.157693 773.681324 773.681324 0 0 0-98.985699 43.00758 11.377667 11.377667 0 0 1-5.233727 1.36532zM455.106661 403.006961a99.895912 99.895912 0 1 1 99.668359-99.895912A99.895912 99.895912 0 0 1 455.106661 403.006961z m0-182.042665a82.829412 82.829412 0 1 0 82.601859 82.829413A82.829412 82.829412 0 0 0 455.106661 220.054083z" fill="" p-id="3980"></path><path d="M955.723988 403.006961a99.895912 99.895912 0 1 1 99.668359-99.895912A99.895912 99.895912 0 0 1 955.723988 403.006961z m0-182.042665a82.829412 82.829412 0 1 0 82.601859 82.829413A82.829412 82.829412 0 0 0 955.723988 220.054083zM250.308664 1024h-5.916387l-3.868407-5.006173c-4.323513-6.14394-2.503087-11.60522 4.77862-31.629913 20.252246-57.570993 18.886926-73.272172 14.108307-76.230366-77.140579-48.013753-119.693052-113.776665-119.693052-182.042664 0-138.807532 172.257871-251.673984 384.110022-251.673984a528.15128 528.15128 0 0 1 227.553331 48.468859 11.377667 11.377667 0 0 1-9.784794 20.4798 505.395947 505.395947 0 0 0-217.085877-45.510666c-200.246931-1.592873-362.492456 101.033679-362.492456 227.325777 0 61.894506 38.684066 119.920605 108.998046 163.610845 26.168633 16.156286 8.419473 66.445573-4.551067 103.081659l-1.137767 3.4133c15.01852-3.868407 37.091193-11.377667 57.570993-17.976713 59.163866-19.342033 99.213252-31.857466 116.962412-29.35438a562.739387 562.739387 0 0 0 83.512072 6.14394c199.109164 0 361.354689-102.626552 361.354689-228.918651a182.042664 182.042664 0 0 0-74.409939-138.807531 11.377667 11.377667 0 0 1 14.563413-17.521607A203.432678 203.432678 0 0 1 907.482682 728.18067c0 138.807532-172.257871 251.673984-384.110022 251.673984a581.39876 581.39876 0 0 1-86.925372-6.371493A495.156047 495.156047 0 0 0 329.952329 1001.244667a397.535669 397.535669 0 0 1-79.643665 22.755333z" fill="" p-id="3981"></path><path d="M637.149326 717.94077A58.481206 58.481206 0 1 1 694.492765 659.914671 58.481206 58.481206 0 0 1 637.149326 717.94077z m0-99.895912A41.414706 41.414706 0 1 0 677.426265 659.914671 41.414706 41.414706 0 0 0 637.149326 618.272412zM386.840662 717.94077A58.481206 58.481206 0 1 1 444.866761 659.914671 58.481206 58.481206 0 0 1 386.840662 717.94077z m0-99.895912A41.414706 41.414706 0 1 0 427.800262 659.914671a41.414706 41.414706 0 0 0-40.9596-41.642259z" fill="" p-id="3982"></path></svg>