<?xml version="1.0" standalone="no"?><!DOCTYPE svg PUBLIC "-//W3C//DTD SVG 1.1//EN" "http://www.w3.org/Graphics/SVG/1.1/DTD/svg11.dtd"><svg t="1527921442005" class="icon" style="" viewBox="0 0 1024 1024" version="1.1" xmlns="http://www.w3.org/2000/svg" p-id="1082" xmlns:xlink="http://www.w3.org/1999/xlink" width="200" height="200"><defs><style type="text/css"></style></defs><path d="M696.871718 1003.718141V851.262369v-5.997002c0-1.391304 0.095952-2.782609 0.203898-4.173913q0.107946-1.31934 0.263868-2.626686-0.191904 1.631184 0.143928-0.527737a50.890555 50.890555 0 0 1 1.727137-6.644677c0.131934-0.371814 1.523238-3.526237 0.323838-1.007496 0.41979-0.887556 0.851574-1.775112 1.331334-2.638681s3.742129-5.097451 1.727137-2.866567c1.331334-1.487256 2.770615-2.794603 4.161919-4.209895 1.883058-1.907046-2.158921 1.1994 0.11994-0.083958 0.443778-0.251874 0.875562-0.5997 1.307346-0.863568 1.295352-0.815592 2.686657-1.427286 3.994003-2.194903 2.230885-1.31934-2.602699 0.83958-0.17991 0 0.671664-0.215892 1.31934-0.491754 1.991004-0.71964a45.709145 45.709145 0 0 1 4.509746-1.1994 10.938531 10.938531 0 0 1 3.5982-0.65967c-2.062969-0.455772-2.734633 0.251874-0.995502 0.155922 0.503748 0 1.007496-0.095952 1.511245-0.131934 1.607196-0.107946 3.214393-0.131934 4.797601-0.095952 4.089955 0.083958 8.17991 0.071964 12.269865 0.071964h153.283358l-8.47976-20.473763L813.645331 865.211394l-112.455772 112.455772-25.823088 25.823089 8.47976-3.514243H289.783262c-10.182909 0-20.389805-0.095952-30.524737-0.395802-9.13943-0.275862-18.266867-0.671664-27.406297-1.115442-8.251874-0.407796-16.95952 0-24.995502-2.038981a52.773613 52.773613 0 0 1-19.394303-8.983508 93.013493 93.013493 0 0 1-14.392804-13.265367 118.008996 118.008996 0 0 1-21.001499-34.578711 165.361319 165.361319 0 0 1-6.848576-21.589205c-1.907046-7.784108-1.115442-15.844078-1.07946-23.892054q0.131934-28.665667 0-57.331335c-0.083958-38.236882-0.371814-76.473763-0.635682-114.710644-0.515742-76.617691-0.89955-153.247376 0.683658-229.865068 0.803598-38.452774 2.098951-76.893553 4.113943-115.298351 0.47976-9.103448 0.527736-18.398801 1.7991-27.430285 1.307346-9.367316 3.358321-18.638681 5.397302-27.862069 3.826087-17.343328 6.50075-34.782609 12.053973-51.730135 5.805097-17.691154 11.058471-35.562219 16.791604-53.253373s12.713643-34.782609 19.190405-52.017991c6.32084-16.791604 14.296852-33.055472 21.889055-49.343328s15.412294-32.65967 23.592204-48.767616 16.5997-31.712144 25.643179-47.172414H254.125091c0.623688 1.07946 1.1994 2.290855 1.835083 3.310345q0.551724 1.1994 0-0.095952a5.589205 5.589205 0 0 1-0.515742-3.094453l5.997001-10.350825h-0.083958l14.524738 1.943029c0.995502 1.007496 1.37931 2.818591 0.851574 0.755622-0.467766-1.7991 1.1994 3.226387-0.65967-1.667166l-21.925038 9.247376a626.722639 626.722639 0 0 1 50.518741 96.947526c7.04048 16.791604 13.457271 33.7991 19.418291 50.974513 4.617691 13.289355 8.5997 26.710645 14.128935 39.64018 1.595202 3.742129 6.548726 5.997001 10.350825 5.997001h269.025487c17.895052 0 36.041979 0.89955 53.973014 0 5.469265-0.275862 8.587706-3.178411 11.526237-7.388306 2.266867-3.238381 5.013493-6.476762 6.596701-10.09895 3.778111-8.587706 5.781109-18.314843 8.827587-27.214393s6.212894-17.607196 9.595202-26.326837c13.193403-34.110945 28.917541-67.166417 45.949025-99.550224q6.464768-12.269865 13.193404-24.395803h-20.761619a31.304348 31.304348 0 0 1 2.014992 3.706147c-0.347826-0.863568-0.53973-1.811094-0.347826-0.395802v-6.392803 0.143928l14.752624-8.395802h-0.143928l5.289355 3.082458 1.367316 1.715143q-0.5997-1.1994-0.167916-0.23988t0-0.227886q-0.407796-1.103448-0.743628-2.230885l-21.925037 9.247376-0.503749-1.283358 21.925038-9.247376 0.503748 1.283358-21.925037 9.247376c11.934033 21.157421 25.403298 41.415292 37.253373 62.596702a470.092954 470.092954 0 0 1 28.617691 60.761619c5.805097 15.136432 13.697151 31.58021 19.118441 45.205398 4.485757 11.298351 7.628186 23.184408 10.890555 34.87856 8.323838 29.793103 15.748126 59.862069 22.608695 90.014993 2.938531 12.905547 5.781109 25.823088 8.275862 38.824588q1.295352 6.728636 2.398801 13.493253c0.551724 3.502249 0-0.923538 0 0.107946 0 0.623688 0.155922 1.1994 0.215892 1.871064 0.41979 4.413793 0.47976 8.863568 0.647676 13.289356 2.158921 54.716642 0.923538 109.481259 0.911544 164.221889 0 15.436282 23.988006 15.46027 23.988006 0 0-49.523238 1.007496-99.070465-0.383808-148.593703-0.407796-14.392804-0.71964-28.665667-3.190405-42.902549-2.050975-11.802099-4.569715-23.532234-7.196401-35.226387q-10.146927-46.008996-22.44078-91.526237c-3.322339-12.245877-6.728636-24.47976-10.650675-36.545727-2.398801-7.544228-5.637181-14.836582-8.815592-22.104947-3.262369-7.472264-7.628186-16.971514-10.122938-23.064468-9.091454-22.212894-17.991004-44.377811-29.24138-65.667167-12.929535-24.53973-28.581709-47.568216-42.206896-71.736132-6.50075-11.538231-26.674663-3.802099-21.925038 9.247377a18.158921 18.158921 0 0 0 1.919041 4.437781c7.892054 10.794603 24.887556 4.629685 21.925037-9.247376a17.991004 17.991004 0 0 0-1.91904-4.437782c-6.356822-11.874063-26.122939-3.778111-21.925038 9.247377 2.098951 6.50075 4.341829 12.149925 11.202399 14.704647 6.344828 2.398801 12.785607-2.686657 14.752624-8.395802 1.823088-5.301349-1.451274-11.154423-4.029985-15.592204-4.449775-7.628186-16.335832-7.94003-20.713643 0a1120.23988 1120.23988 0 0 0-50.878561 103.4003c-7.688156 18.158921-14.848576 36.533733-21.133433 55.172414q-2.086957 6.188906-4.053973 12.425787a69.193403 69.193403 0 0 0-2.194903 7.136432c-0.935532 4.797601 0.77961-0.395802-0.323838 1.391304-2.002999 3.238381-4.365817 6.296852-6.524738 9.427287l10.350825-5.997002H348.613847l10.350825 5.997002-2.194903-5.133434c-0.335832-0.791604-0.755622-1.583208-1.01949-2.3988 1.007496 3.094453-0.83958-3.514243-1.031484-4.113943q-4.161919-12.893553-8.647677-25.691155-9.271364-26.386807-20.137931-52.089955c-14.392804-34.026987-31.064468-67.058471-51.082458-98.146926a12.053973 12.053973 0 0 0-14.98051-4.905547c-5.049475 2.218891-9.067466 8.467766-6.944528 14.152923 1.487256 3.982009 2.902549 8.395802 5.997002 11.502249a12.305847 12.305847 0 0 0 14.560719 1.907046h0.083958c3.382309-1.763118 6.38081-6.44078 5.997002-10.350824a30.68066 30.68066 0 0 0-4.605697-12.221889 12.113943 12.113943 0 0 0-20.713644 0C228.302003 51.394303 206.316996 98.038981 185.795256 144.815592c-5.229385 11.994003-9.343328 24.503748-13.889055 36.737631-4.449775 11.994003-9.031484 23.904048-12.917541 36.101949-7.58021 23.784108-16.095952 47.592204-21.397302 71.964018-5.709145 26.242879-11.238381 52.425787-12.725637 79.28036q-2.194903 39.76012-3.406297 79.568216C119.792258 501.685157 119.240534 554.938531 119.192558 608.17991s0.407796 106.230885 0.755622 159.34033q0.251874 39.58021 0.335832 79.10045v39.58021c0 13.073463-1.103448 26.146927 2.086957 38.896551 9.97901 40.011994 36.317841 84.161919 78.944527 94.632684 12.221889 2.998501 25.607196 2.494753 38.152924 3.058471s25.31934 1.007496 37.985007 1.127436h401.943029c4.797601 0 8.887556 0.095952 12.917541-3.526237 6.692654-5.997001 12.821589-12.821589 19.190405-19.190405l100.857571-100.761619 84.509745-84.509745 4.557721-4.557721c7.34033-7.34033 1.91904-20.473763-8.47976-20.473763H743.64833c-15.592204 0-31.004498-0.995502-45.289355 6.668665-18.278861 9.7991-25.403298 29.829085-25.475263 49.595203-0.107946 18.986507 0 37.985007 0 56.971514 0 32.575712-0.47976 65.187406 0 97.763118v1.823089c0 15.436282 23.988006 15.46027 23.988006 0z" fill="" p-id="1083"></path><path d="M877.525391 459.958021v217.163418c0 10.014993-0.263868 20.077961 0 30.092954v0.431784c0 6.272864 5.517241 12.281859 11.994003 11.994003a12.197901 12.197901 0 0 0 11.994003-11.994003V490.482759c0-10.014993 0.263868-20.077961 0-30.092954v-0.431784c0-6.272864-5.517241-12.281859-11.994003-11.994003a12.197901 12.197901 0 0 0-11.994003 11.994003zM240.42794 682.302849h514.098951c6.968516 0 13.961019 0.143928 20.929535 0h0.89955c7.712144 0 7.736132-11.994003 0-11.994003H262.257025c-6.968516 0-13.961019-0.143928-20.929535 0h-0.89955c-7.712144 0-7.736132 11.994003 0 11.994003zM240.42794 833.187406h287.70015c13.193403 0 26.578711 0.431784 39.82009 0h0.587706c7.712144 0 7.736132-11.994003 0-11.994003H280.823742c-13.193403 0-26.578711-0.431784-39.82009 0h-0.575712c-7.712144 0-7.736132 11.994003 0 11.994003zM650.023142 359.244378a76.221889 76.221889 0 1 1-135.604197 39.484258l-2.962519 5.157421 1.367316-0.695652-9.055472-5.157421a76.197901 76.197901 0 0 1-62.548726 82.902548c-37.649175 6.896552-75.670165-16.947526-86.356821-53.529235a76.761619 76.761619 0 0 1 13.373313-68.857571c2.014993-2.530735 2.470765-5.997001 0-8.47976-2.086957-2.086957-6.452774-2.542729-8.47976 0a89.595202 89.595202 0 0 0-18.506747 71.808095 88.275862 88.275862 0 0 0 93.42129 71.964018 88.11994 88.11994 0 0 0 81.091454-95.808095c-0.407796-4.617691-4.797601-7.364318-9.01949-5.18141-3.478261 1.775112-4.257871 4.353823-4.52174 8.095952a82.554723 82.554723 0 0 0-0.095952 9.811095 91.214393 91.214393 0 0 0 2.470765 17.031484 86.536732 86.536732 0 0 0 13.457271 29.457271 88.203898 88.203898 0 0 0 156.737632-25.55922c8.395802-28.005997 1.763118-58.218891-16.311844-80.911544-2.014993-2.530735-6.368816-2.110945-8.479761 0-2.506747 2.506747-2.026987 5.997001 0 8.47976z" fill="" p-id="1084"></path></svg>