<?xml version="1.0" standalone="no"?><!DOCTYPE svg PUBLIC "-//W3C//DTD SVG 1.1//EN" "http://www.w3.org/Graphics/SVG/1.1/DTD/svg11.dtd"><svg t="1528627247210" class="icon" style="" viewBox="0 0 1024 1024" version="1.1" xmlns="http://www.w3.org/2000/svg" p-id="6273" xmlns:xlink="http://www.w3.org/1999/xlink" width="200" height="200"><defs><style type="text/css"></style></defs><path d="M530.652 992.563c-124.282 0-231.436-44.153-318.49-131.206-88.305-88.272-131.207-192.453-131.207-318.491 0-126.072 42.902-230.253 131.206-318.49 67.9-71.516 157.725-115.837 259.17-127.525 44.052-3.682 64.118-3.783 113.675-0.135h0.101c6.756 0 64.759 8.479 113.134 26.248 17.937 6.587 27.127 26.45 20.538 44.389-6.587 17.97-26.484 27.194-44.388 20.538-40.301-14.796-88.17-21.654-94.014-22.16-46.584-3.378-62.765-3.31-102.222-0.068-84.014 9.729-159.245 46.754-216.437 106.986-75.3 75.265-111.58 163.434-111.58 270.217 0 106.75 36.282 194.918 110.938 269.575s162.827 110.937 269.575 110.937c103.472 0 191.81-36.45 270.116-111.444 73.947-77.257 110.397-165.596 110.397-269.068 0-41.551-7.297-84.859-21.722-128.741-2.837-5.946-5.202-11.823-7.466-17.499-2.33-5.878-4.527-11.452-6.52-14.424-0.81-1.216-1.52-2.5-2.195-3.817-0.034 0-17.566-28.68-62.867-29.254h-0.574c-40.706 0-53.307 19.323-58.07 26.619-0.237 0.371-0.54 0.777-0.879 1.25l-157.86 332.88c-15.945 34.559-37.16 52.666-62.9 53.477-25.81 0.067-49.017-16.655-68.002-51.888L305.533 374.061c-8.04-17.33-0.507-37.902 16.823-45.942 17.43-8.074 37.936-0.473 45.942 16.823l155.664 335.55c1.25 2.264 2.4 4.223 3.48 5.912a85.812 85.812 0 0 0 2.905-5.844l159.312-335.888a36.346 36.346 0 0 1 3.918-6.384c32.126-48.679 83.136-58.07 117.425-58.341 69.995 0.878 110.33 42.058 123.1 65.535 5.438 8.547 8.884 17.263 12.228 25.708 1.825 4.628 3.716 9.492 6.114 14.323a33.323 33.323 0 0 1 1.892 4.561c17.264 51.718 26.013 103.133 26.013 152.792 0 120.465-43.984 227.45-130.7 317.95-91.548 87.763-198.533 131.747-318.997 131.747z" p-id="6274"></path></svg>